<svg width="221" height="68" viewBox="0 0 221 68" fill="none" xmlns="http://www.w3.org/2000/svg">
<g filter="url(#filter0_d_9_69)">
<rect x="2" y="1" width="217" height="64" rx="5" fill="url(#paint0_linear_9_69)" shape-rendering="crispEdges"/>
<path d="M39.58 39.126C38.704 39.126 37.912 38.976 37.204 38.676C36.508 38.376 35.956 37.944 35.548 37.38C35.14 36.816 34.93 36.15 34.918 35.382H37.618C37.654 35.898 37.834 36.306 38.158 36.606C38.494 36.906 38.95 37.056 39.526 37.056C40.114 37.056 40.576 36.918 40.912 36.642C41.248 36.354 41.416 35.982 41.416 35.526C41.416 35.154 41.302 34.848 41.074 34.608C40.846 34.368 40.558 34.182 40.21 34.05C39.874 33.906 39.406 33.75 38.806 33.582C37.99 33.342 37.324 33.108 36.808 32.88C36.304 32.64 35.866 32.286 35.494 31.818C35.134 31.338 34.954 30.702 34.954 29.91C34.954 29.166 35.14 28.518 35.512 27.966C35.884 27.414 36.406 26.994 37.078 26.706C37.75 26.406 38.518 26.256 39.382 26.256C40.678 26.256 41.728 26.574 42.532 27.21C43.348 27.834 43.798 28.71 43.882 29.838H41.11C41.086 29.406 40.9 29.052 40.552 28.776C40.216 28.488 39.766 28.344 39.202 28.344C38.71 28.344 38.314 28.47 38.014 28.722C37.726 28.974 37.582 29.34 37.582 29.82C37.582 30.156 37.69 30.438 37.906 30.666C38.134 30.882 38.41 31.062 38.734 31.206C39.07 31.338 39.538 31.494 40.138 31.674C40.954 31.914 41.62 32.154 42.136 32.394C42.652 32.634 43.096 32.994 43.468 33.474C43.84 33.954 44.026 34.584 44.026 35.364C44.026 36.036 43.852 36.66 43.504 37.236C43.156 37.812 42.646 38.274 41.974 38.622C41.302 38.958 40.504 39.126 39.58 39.126ZM48.7308 28.47V31.62H52.9608V33.618H48.7308V36.948H53.5008V39H46.2108V26.418H53.5008V28.47H48.7308ZM58.3108 37.002H62.4508V39H55.7908V26.436H58.3108V37.002ZM66.5725 28.47V31.62H70.8025V33.618H66.5725V36.948H71.3425V39H64.0525V26.418H71.3425V28.47H66.5725ZM73.0206 32.7C73.0206 31.464 73.2966 30.36 73.8486 29.388C74.4126 28.404 75.1746 27.642 76.1346 27.102C77.1066 26.55 78.1926 26.274 79.3926 26.274C80.7966 26.274 82.0266 26.634 83.0826 27.354C84.1386 28.074 84.8766 29.07 85.2966 30.342H82.3986C82.1106 29.742 81.7026 29.292 81.1746 28.992C80.6586 28.692 80.0586 28.542 79.3746 28.542C78.6426 28.542 77.9886 28.716 77.4126 29.064C76.8486 29.4 76.4046 29.88 76.0806 30.504C75.7686 31.128 75.6126 31.86 75.6126 32.7C75.6126 33.528 75.7686 34.26 76.0806 34.896C76.4046 35.52 76.8486 36.006 77.4126 36.354C77.9886 36.69 78.6426 36.858 79.3746 36.858C80.0586 36.858 80.6586 36.708 81.1746 36.408C81.7026 36.096 82.1106 35.64 82.3986 35.04H85.2966C84.8766 36.324 84.1386 37.326 83.0826 38.046C82.0386 38.754 80.8086 39.108 79.3926 39.108C78.1926 39.108 77.1066 38.838 76.1346 38.298C75.1746 37.746 74.4126 36.984 73.8486 36.012C73.2966 35.04 73.0206 33.936 73.0206 32.7ZM89.969 26.436V39H87.449V26.436H89.969ZM98.2908 39.126C97.1148 39.126 96.0348 38.85 95.0508 38.298C94.0668 37.746 93.2868 36.984 92.7108 36.012C92.1348 35.028 91.8468 33.918 91.8468 32.682C91.8468 31.458 92.1348 30.36 92.7108 29.388C93.2868 28.404 94.0668 27.636 95.0508 27.084C96.0348 26.532 97.1148 26.256 98.2908 26.256C99.4788 26.256 100.559 26.532 101.531 27.084C102.515 27.636 103.289 28.404 103.853 29.388C104.429 30.36 104.717 31.458 104.717 32.682C104.717 33.918 104.429 35.028 103.853 36.012C103.289 36.984 102.515 37.746 101.531 38.298C100.547 38.85 99.4668 39.126 98.2908 39.126ZM98.2908 36.876C99.0468 36.876 99.7128 36.708 100.289 36.372C100.865 36.024 101.315 35.532 101.639 34.896C101.963 34.26 102.125 33.522 102.125 32.682C102.125 31.842 101.963 31.11 101.639 30.486C101.315 29.85 100.865 29.364 100.289 29.028C99.7128 28.692 99.0468 28.524 98.2908 28.524C97.5348 28.524 96.8628 28.692 96.2748 29.028C95.6988 29.364 95.2488 29.85 94.9248 30.486C94.6008 31.11 94.4388 31.842 94.4388 32.682C94.4388 33.522 94.6008 34.26 94.9248 34.896C95.2488 35.532 95.6988 36.024 96.2748 36.372C96.8628 36.708 97.5348 36.876 98.2908 36.876ZM117.338 39H114.818L109.112 30.378V39H106.592V26.418H109.112L114.818 35.058V26.418H117.338V39ZM122.348 28.47V31.62H126.578V33.618H122.348V36.948H127.118V39H119.828V26.418H127.118V28.47H122.348ZM141.401 36.606H136.397L135.569 39H132.923L137.441 26.418H140.375L144.893 39H142.229L141.401 36.606ZM140.717 34.59L138.899 29.334L137.081 34.59H140.717ZM155.209 39.126C154.333 39.126 153.541 38.976 152.833 38.676C152.137 38.376 151.585 37.944 151.177 37.38C150.769 36.816 150.559 36.15 150.547 35.382H153.247C153.283 35.898 153.463 36.306 153.787 36.606C154.123 36.906 154.579 37.056 155.155 37.056C155.743 37.056 156.205 36.918 156.541 36.642C156.877 36.354 157.045 35.982 157.045 35.526C157.045 35.154 156.931 34.848 156.703 34.608C156.475 34.368 156.187 34.182 155.839 34.05C155.503 33.906 155.035 33.75 154.435 33.582C153.619 33.342 152.953 33.108 152.437 32.88C151.933 32.64 151.495 32.286 151.123 31.818C150.763 31.338 150.583 30.702 150.583 29.91C150.583 29.166 150.769 28.518 151.141 27.966C151.513 27.414 152.035 26.994 152.707 26.706C153.379 26.406 154.147 26.256 155.011 26.256C156.307 26.256 157.357 26.574 158.161 27.21C158.977 27.834 159.427 28.71 159.511 29.838H156.739C156.715 29.406 156.529 29.052 156.181 28.776C155.845 28.488 155.395 28.344 154.831 28.344C154.339 28.344 153.943 28.47 153.643 28.722C153.355 28.974 153.211 29.34 153.211 29.82C153.211 30.156 153.319 30.438 153.535 30.666C153.763 30.882 154.039 31.062 154.363 31.206C154.699 31.338 155.167 31.494 155.767 31.674C156.583 31.914 157.249 32.154 157.765 32.394C158.281 32.634 158.725 32.994 159.097 33.474C159.469 33.954 159.655 34.584 159.655 35.364C159.655 36.036 159.481 36.66 159.133 37.236C158.785 37.812 158.275 38.274 157.603 38.622C156.931 38.958 156.133 39.126 155.209 39.126ZM164.324 26.436V34.212C164.324 35.064 164.546 35.718 164.99 36.174C165.434 36.618 166.058 36.84 166.862 36.84C167.678 36.84 168.308 36.618 168.752 36.174C169.196 35.718 169.418 35.064 169.418 34.212V26.436H171.956V34.194C171.956 35.262 171.722 36.168 171.254 36.912C170.798 37.644 170.18 38.196 169.4 38.568C168.632 38.94 167.774 39.126 166.826 39.126C165.89 39.126 165.038 38.94 164.27 38.568C163.514 38.196 162.914 37.644 162.47 36.912C162.026 36.168 161.804 35.262 161.804 34.194V26.436H164.324ZM182.094 36.606H177.09L176.262 39H173.616L178.134 26.418H181.068L185.586 39H182.922L182.094 36.606ZM181.41 34.59L179.592 29.334L177.774 34.59H181.41Z" fill="#121212"/>
</g>
<defs>
<filter id="filter0_d_9_69" x="0" y="0" width="221" height="68" filterUnits="userSpaceOnUse" color-interpolation-filters="sRGB">
<feFlood flood-opacity="0" result="BackgroundImageFix"/>
<feColorMatrix in="SourceAlpha" type="matrix" values="0 0 0 0 0 0 0 0 0 0 0 0 0 0 0 0 0 0 127 0" result="hardAlpha"/>
<feOffset dy="1"/>
<feGaussianBlur stdDeviation="1"/>
<feComposite in2="hardAlpha" operator="out"/>
<feColorMatrix type="matrix" values="0 0 0 0 0 0 0 0 0 0 0 0 0 0 0 0 0 0 0.25 0"/>
<feBlend mode="normal" in2="BackgroundImageFix" result="effect1_dropShadow_9_69"/>
<feBlend mode="normal" in="SourceGraphic" in2="effect1_dropShadow_9_69" result="shape"/>
</filter>
<linearGradient id="paint0_linear_9_69" x1="110.5" y1="1" x2="110.5" y2="65" gradientUnits="userSpaceOnUse">
<stop stop-color="#FFBB00"/>
<stop offset="1" stop-color="#A36700"/>
</linearGradient>
</defs>
</svg>
